<mxfile host="Electron" modified="2024-05-23T05:58:25.357Z" agent="Mozilla/5.0 (Windows NT 10.0; Win64; x64) AppleWebKit/537.36 (KHTML, like Gecko) draw.io/24.4.6 Chrome/124.0.6367.207 Electron/30.0.6 Safari/537.36" etag="MTMrULiq-OvcBT8EALkJ" version="24.4.6" type="device">
  <diagram name="ページ1" id="cEe8tPcPN9w1u3hlql8w">
    <mxGraphModel dx="1195" dy="703" grid="1" gridSize="10" guides="1" tooltips="1" connect="1" arrows="1" fold="1" page="1" pageScale="1" pageWidth="827" pageHeight="1169" math="0" shadow="0">
      <root>
        <mxCell id="0" />
        <mxCell id="1" parent="0" />
        <mxCell id="jfqJHWVj6OjWdGnSvRu1-1" value="&lt;font style=&quot;font-size: 11px;&quot; face=&quot;Noto Sans JP&quot;&gt;フロントエンド&lt;/font&gt;" style="shape=umlLifeline;perimeter=lifelinePerimeter;whiteSpace=wrap;html=1;container=1;dropTarget=0;collapsible=0;recursiveResize=0;outlineConnect=0;portConstraint=eastwest;newEdgeStyle={&quot;curved&quot;:0,&quot;rounded&quot;:0};" vertex="1" parent="1">
          <mxGeometry x="40" y="40" width="100" height="640" as="geometry" />
        </mxCell>
        <mxCell id="jfqJHWVj6OjWdGnSvRu1-2" value="&lt;font style=&quot;font-size: 11px;&quot; face=&quot;Noto Sans JP&quot;&gt;https://frontend.example.com&lt;/font&gt;" style="text;html=1;align=center;verticalAlign=middle;whiteSpace=wrap;rounded=0;" vertex="1" parent="1">
          <mxGeometry x="60" y="10" width="60" height="30" as="geometry" />
        </mxCell>
        <mxCell id="jfqJHWVj6OjWdGnSvRu1-3" value="&lt;font style=&quot;font-size: 11px;&quot; face=&quot;Noto Sans JP&quot;&gt;バックエンド&lt;/font&gt;" style="shape=umlLifeline;perimeter=lifelinePerimeter;whiteSpace=wrap;html=1;container=1;dropTarget=0;collapsible=0;recursiveResize=0;outlineConnect=0;portConstraint=eastwest;newEdgeStyle={&quot;curved&quot;:0,&quot;rounded&quot;:0};" vertex="1" parent="1">
          <mxGeometry x="370" y="40" width="100" height="640" as="geometry" />
        </mxCell>
        <mxCell id="jfqJHWVj6OjWdGnSvRu1-4" value="&lt;font face=&quot;Noto Sans JP&quot;&gt;&lt;span style=&quot;font-size: 11px;&quot;&gt;https://backend.example.net&lt;/span&gt;&lt;/font&gt;" style="text;html=1;align=center;verticalAlign=middle;whiteSpace=wrap;rounded=0;" vertex="1" parent="1">
          <mxGeometry x="390" y="10" width="60" height="30" as="geometry" />
        </mxCell>
        <mxCell id="jfqJHWVj6OjWdGnSvRu1-5" value="" style="endArrow=classic;html=1;rounded=0;exitX=0.503;exitY=0.182;exitDx=0;exitDy=0;exitPerimeter=0;" edge="1" parent="1">
          <mxGeometry width="50" height="50" relative="1" as="geometry">
            <mxPoint x="90.79999999999995" y="119.99999999999997" as="sourcePoint" />
            <mxPoint x="420.0000000000002" y="119.99999999999997" as="targetPoint" />
          </mxGeometry>
        </mxCell>
        <mxCell id="jfqJHWVj6OjWdGnSvRu1-11" value="&lt;font style=&quot;font-size: 11px;&quot; face=&quot;Noto Sans JP&quot;&gt;OPTIONS&lt;/font&gt;" style="swimlane;whiteSpace=wrap;html=1;" vertex="1" parent="1">
          <mxGeometry x="100" y="130" width="250" height="110" as="geometry" />
        </mxCell>
        <mxCell id="jfqJHWVj6OjWdGnSvRu1-12" value="&lt;div&gt;Origin: https://frontend.example.com&lt;br&gt;Access-Control-Request-Method: POST&lt;br&gt;Access-Control-Request-Headers:&amp;nbsp;&lt;br&gt;&amp;nbsp; &amp;nbsp; access-control-allow-origin,authorization&lt;br&gt;&lt;/div&gt;" style="text;align=left;verticalAlign=middle;resizable=0;points=[];autosize=1;strokeColor=none;fillColor=none;fontFamily=Noto Sans JP;fontSize=11;html=1;" vertex="1" parent="jfqJHWVj6OjWdGnSvRu1-11">
          <mxGeometry x="10" y="20" width="260" height="70" as="geometry" />
        </mxCell>
        <mxCell id="jfqJHWVj6OjWdGnSvRu1-14" value="" style="endArrow=classic;html=1;rounded=0;exitX=0.489;exitY=0.544;exitDx=0;exitDy=0;exitPerimeter=0;" edge="1" parent="1">
          <mxGeometry width="50" height="50" relative="1" as="geometry">
            <mxPoint x="420.0000000000001" y="280.00000000000006" as="sourcePoint" />
            <mxPoint x="90.76666666666674" y="280.00000000000006" as="targetPoint" />
          </mxGeometry>
        </mxCell>
        <mxCell id="jfqJHWVj6OjWdGnSvRu1-15" value="&lt;font face=&quot;Noto Sans JP&quot;&gt;&lt;span style=&quot;font-size: 11px;&quot;&gt;204 No Content&lt;/span&gt;&lt;/font&gt;" style="swimlane;whiteSpace=wrap;html=1;" vertex="1" parent="1">
          <mxGeometry x="160" y="290" width="250" height="110" as="geometry" />
        </mxCell>
        <mxCell id="jfqJHWVj6OjWdGnSvRu1-16" value="Access-Control-Allow-Origin:&lt;br&gt;&amp;nbsp; &amp;nbsp; https://frontend.example.com&lt;div&gt;Access-Control-Allow-Methods:&lt;/div&gt;&lt;div&gt;&amp;nbsp; &amp;nbsp; OPTIONS, POST, GET&lt;/div&gt;&lt;div&gt;Access-Control-Allow-Headers:&lt;/div&gt;&lt;div&gt;&amp;nbsp; &amp;nbsp; access-control-allow-origin,authorization&lt;/div&gt;" style="text;align=left;verticalAlign=middle;resizable=0;points=[];autosize=1;strokeColor=none;fillColor=none;fontFamily=Noto Sans JP;fontSize=11;html=1;" vertex="1" parent="jfqJHWVj6OjWdGnSvRu1-15">
          <mxGeometry x="10" y="20" width="260" height="90" as="geometry" />
        </mxCell>
        <mxCell id="jfqJHWVj6OjWdGnSvRu1-19" value="&lt;font style=&quot;font-size: 11px;&quot; face=&quot;Noto Sans JP&quot;&gt;プリフライトリクエスト&lt;/font&gt;" style="text;html=1;align=center;verticalAlign=middle;whiteSpace=wrap;rounded=0;textDirection=vertical-rl;" vertex="1" parent="1">
          <mxGeometry x="50" y="100" width="30" height="140" as="geometry" />
        </mxCell>
        <mxCell id="jfqJHWVj6OjWdGnSvRu1-20" value="" style="endArrow=classic;html=1;rounded=0;exitX=0.503;exitY=0.182;exitDx=0;exitDy=0;exitPerimeter=0;" edge="1" parent="1">
          <mxGeometry width="50" height="50" relative="1" as="geometry">
            <mxPoint x="90.79999999999995" y="440" as="sourcePoint" />
            <mxPoint x="420.0000000000002" y="440" as="targetPoint" />
          </mxGeometry>
        </mxCell>
        <mxCell id="jfqJHWVj6OjWdGnSvRu1-21" value="&lt;font style=&quot;font-size: 11px;&quot; face=&quot;Noto Sans JP&quot;&gt;POST&lt;/font&gt;" style="swimlane;whiteSpace=wrap;html=1;" vertex="1" parent="1">
          <mxGeometry x="100" y="450" width="250" height="80" as="geometry" />
        </mxCell>
        <mxCell id="jfqJHWVj6OjWdGnSvRu1-22" value="&lt;div&gt;Origin: https://frontend.example.com&lt;br&gt;&lt;/div&gt;" style="text;align=left;verticalAlign=middle;resizable=0;points=[];autosize=1;strokeColor=none;fillColor=none;fontFamily=Noto Sans JP;fontSize=11;html=1;" vertex="1" parent="jfqJHWVj6OjWdGnSvRu1-21">
          <mxGeometry x="10" y="20" width="230" height="30" as="geometry" />
        </mxCell>
        <mxCell id="jfqJHWVj6OjWdGnSvRu1-23" value="" style="endArrow=classic;html=1;rounded=0;exitX=0.489;exitY=0.544;exitDx=0;exitDy=0;exitPerimeter=0;" edge="1" parent="1">
          <mxGeometry width="50" height="50" relative="1" as="geometry">
            <mxPoint x="420.0000000000001" y="570" as="sourcePoint" />
            <mxPoint x="90.76666666666674" y="570" as="targetPoint" />
          </mxGeometry>
        </mxCell>
        <mxCell id="jfqJHWVj6OjWdGnSvRu1-24" value="&lt;font face=&quot;Noto Sans JP&quot;&gt;&lt;span style=&quot;font-size: 11px;&quot;&gt;200 OK&lt;/span&gt;&lt;/font&gt;" style="swimlane;whiteSpace=wrap;html=1;" vertex="1" parent="1">
          <mxGeometry x="160" y="580" width="250" height="80" as="geometry" />
        </mxCell>
        <mxCell id="jfqJHWVj6OjWdGnSvRu1-25" value="Access-Control-Allow-Origin:&lt;br&gt;&amp;nbsp; &amp;nbsp; https://frontend.example.com" style="text;align=left;verticalAlign=middle;resizable=0;points=[];autosize=1;strokeColor=none;fillColor=none;fontFamily=Noto Sans JP;fontSize=11;html=1;" vertex="1" parent="jfqJHWVj6OjWdGnSvRu1-24">
          <mxGeometry x="10" y="20" width="200" height="40" as="geometry" />
        </mxCell>
        <mxCell id="jfqJHWVj6OjWdGnSvRu1-26" value="&lt;font face=&quot;Noto Sans JP&quot;&gt;&lt;span style=&quot;font-size: 11px;&quot;&gt;メインリクエスト&lt;/span&gt;&lt;/font&gt;" style="text;html=1;align=center;verticalAlign=middle;whiteSpace=wrap;rounded=0;textDirection=vertical-rl;" vertex="1" parent="1">
          <mxGeometry x="50" y="400" width="30" height="140" as="geometry" />
        </mxCell>
      </root>
    </mxGraphModel>
  </diagram>
</mxfile>
